<?xml version="1.0" encoding="utf-8"?>
<!-- Generator: Adobe Illustrator 28.3.0, SVG Export Plug-In . SVG Version: 6.00 Build 0)  -->
<svg version="1.1" id="Слой_2" xmlns="http://www.w3.org/2000/svg" xmlns:xlink="http://www.w3.org/1999/xlink" x="0px" y="0px"
	 viewBox="0 0 1056.69 1059.74" style="enable-background:new 0 0 1056.69 1059.74;" xml:space="preserve">
<style type="text/css">
	.st0{fill:url(#SVGID_1_);}
	.st1{fill:#FFFFFF;}
	.st2{fill:url(#SVGID_00000021100745981097127710000010624930831702992827_);}
</style>
<linearGradient id="SVGID_1_" gradientUnits="userSpaceOnUse" x1="86.3925" y1="275.7752" x2="973.7158" y2="788.0715">
	<stop  offset="0" style="stop-color:#325D70"/>
	<stop  offset="0.3665" style="stop-color:#2C576B"/>
	<stop  offset="0.8782" style="stop-color:#19455F"/>
	<stop  offset="1" style="stop-color:#14405B"/>
</linearGradient>
<circle class="st0" cx="530.05" cy="531.92" r="512.21"/>
<g>
	<path class="st1" d="M549.53,178.93c-29.03,0-56.22,7.84-79.59,21.51c-46.81,27.39-78.25,77.41-78.25,135.56
		c27.44,0,91.17-0.49,108.02-0.49c0-2.35,0.05-13.98,0.05-14.95c0-27.57,22.35-49.92,49.92-49.92c27.57,0,49.92,22.35,49.92,49.92
		c0,7.25-0.01,11.45-0.01,15.88c0,53.67-43.44,59.03-52.54,59.03c-9.1,0-250.19-0.09-251.82-0.09
		c-77.44,1.18-138.49,62-138.49,138.49s62,136.44,138.49,136.44c1.42,0,53.04-0.85,53.04-0.85v-32.34v-74.62h-53.83
		c0,0-30.8,2.05-30.8-30.23s30.8-30.91,30.8-30.91s229.72,0,254.12,0c87.62,0,158.65-71.03,158.65-158.65
		c0.16-2.05,0.07-3.79,0.16-5.93C707.37,249.6,636.7,178.93,549.53,178.93z"/>
</g>
<g>
	
		<linearGradient id="SVGID_00000144307590102313282740000014076732251164388493_" gradientUnits="userSpaceOnUse" x1="608.3232" y1="403.4439" x2="649.4371" y2="873.378">
		<stop  offset="0" style="stop-color:#FFFFFF"/>
		<stop  offset="0.4624" style="stop-color:#CCF7EF"/>
		<stop  offset="1" style="stop-color:#8DECDB"/>
	</linearGradient>
	<path style="fill:url(#SVGID_00000144307590102313282740000014076732251164388493_);" d="M510.58,884.91
		c29.03,0,56.22-7.84,79.59-21.51c46.81-27.39,78.25-77.41,78.25-135.56c-27.44,0-91.17,0.49-108.02,0.49
		c0,2.35-0.05,13.98-0.05,14.95c0,27.57-22.35,49.92-49.92,49.92c-27.57,0-49.92-22.35-49.92-49.92c0-7.25,0.01-11.45,0.01-15.88
		c0-53.67,43.44-59.03,52.54-59.03s250.19,0.09,251.82,0.09c77.44-1.18,138.49-62,138.49-138.49s-62-136.44-138.49-136.44
		c-2.32,0-53.04,0.85-53.04,0.85v32.34v74.62h53.83c0,0,30.8-2.05,30.8,30.23s-30.8,30.91-30.8,30.91c-222.8,0-222.8,0-254.12,0
		c-87.62,0-158.65,71.03-158.65,158.65c-0.16,2.05-0.07,3.79-0.16,5.93C352.74,814.25,423.4,884.91,510.58,884.91z"/>
</g>
</svg>
