<?xml version="1.0" encoding="utf-8"?>
<!-- Generator: Adobe Illustrator 28.3.0, SVG Export Plug-In . SVG Version: 6.00 Build 0)  -->
<svg version="1.1" id="Слой_2" xmlns="http://www.w3.org/2000/svg" xmlns:xlink="http://www.w3.org/1999/xlink" x="0px" y="0px"
	 viewBox="0 0 4069.29 1074.76" style="enable-background:new 0 0 4069.29 1074.76;" xml:space="preserve">
<style type="text/css">
	.st0{fill:url(#SVGID_1_);}
	.st1{fill:#FFFFFF;}
	.st2{fill:url(#SVGID_00000127740951552305377070000007621406524490011526_);}
	.st3{fill:url(#SVGID_00000145018661968277560020000011379034494222183570_);}
	.st4{fill:url(#SVGID_00000040533671459461835740000011121865947196393098_);}
	.st5{fill:url(#SVGID_00000141423688380390383390000003267704716757788606_);}
	.st6{fill:url(#SVGID_00000158028039369607496200000002212728878633719971_);}
	.st7{fill:url(#SVGID_00000055696851154213418970000007341569171486046855_);}
	.st8{fill:url(#SVGID_00000055693069438893244870000005977669822237639340_);}
	.st9{fill:url(#SVGID_00000181047066119862412970000002909239640607993514_);}
	.st10{fill:url(#SVGID_00000182486714618761337090000008370907756232182675_);}
</style>
<linearGradient id="SVGID_1_" gradientUnits="userSpaceOnUse" x1="86.3925" y1="275.7752" x2="973.7158" y2="788.0715">
	<stop  offset="0" style="stop-color:#325D70"/>
	<stop  offset="0.3665" style="stop-color:#2C576B"/>
	<stop  offset="0.8782" style="stop-color:#19455F"/>
	<stop  offset="1" style="stop-color:#14405B"/>
</linearGradient>
<circle class="st0" cx="530.05" cy="531.92" r="512.21"/>
<g>
	<path class="st1" d="M549.53,178.93c-29.03,0-56.22,7.84-79.59,21.51c-46.81,27.39-78.25,77.41-78.25,135.56
		c27.44,0,91.17-0.49,108.02-0.49c0-2.35,0.05-13.98,0.05-14.95c0-27.57,22.35-49.92,49.92-49.92c27.57,0,49.92,22.35,49.92,49.92
		c0,7.25-0.01,11.45-0.01,15.88c0,53.67-43.44,59.03-52.54,59.03c-9.1,0-250.19-0.09-251.82-0.09
		c-77.44,1.18-138.49,62-138.49,138.49s62,136.44,138.49,136.44c1.42,0,53.04-0.85,53.04-0.85v-32.34v-74.62h-53.83
		c0,0-30.8,2.05-30.8-30.23s30.8-30.91,30.8-30.91s229.72,0,254.12,0c87.62,0,158.65-71.03,158.65-158.65
		c0.16-2.05,0.07-3.79,0.16-5.93C707.37,249.6,636.7,178.93,549.53,178.93z"/>
</g>
<g>
	
		<linearGradient id="SVGID_00000020396743453687936940000006997939281804593321_" gradientUnits="userSpaceOnUse" x1="608.3232" y1="403.4439" x2="649.4371" y2="873.378">
		<stop  offset="0" style="stop-color:#FFFFFF"/>
		<stop  offset="0.4624" style="stop-color:#CCF7EF"/>
		<stop  offset="1" style="stop-color:#8DECDB"/>
	</linearGradient>
	<path style="fill:url(#SVGID_00000020396743453687936940000006997939281804593321_);" d="M510.58,884.91
		c29.03,0,56.22-7.84,79.59-21.51c46.81-27.39,78.25-77.41,78.25-135.56c-27.44,0-91.17,0.49-108.02,0.49
		c0,2.35-0.05,13.98-0.05,14.95c0,27.57-22.35,49.92-49.92,49.92c-27.57,0-49.92-22.35-49.92-49.92c0-7.25,0.01-11.45,0.01-15.88
		c0-53.67,43.44-59.03,52.54-59.03s250.19,0.09,251.82,0.09c77.44-1.18,138.49-62,138.49-138.49s-62-136.44-138.49-136.44
		c-2.32,0-53.04,0.85-53.04,0.85v32.34v74.62h53.83c0,0,30.8-2.05,30.8,30.23s-30.8,30.91-30.8,30.91c-222.8,0-222.8,0-254.12,0
		c-87.62,0-158.65,71.03-158.65,158.65c-0.16,2.05-0.07,3.79-0.16,5.93C352.74,814.25,423.4,884.91,510.58,884.91z"/>
</g>
<g>
	
		<linearGradient id="SVGID_00000088111204201654681200000003887994457236259970_" gradientUnits="userSpaceOnUse" x1="1261.7621" y1="614.8344" x2="1656.7471" y2="614.8344">
		<stop  offset="0" style="stop-color:#14405B"/>
		<stop  offset="1" style="stop-color:#14405B"/>
	</linearGradient>
	<path style="fill:url(#SVGID_00000088111204201654681200000003887994457236259970_);" d="M1465.83,344.55
		c-51.02,0-74.98,13.5-107.44,40.49v-31.49h-96.62v531.57h96.62V711.93c31.69,23.24,66.48,34.49,108.22,34.49
		c109.76,0,190.15-85.47,190.15-199.43C1656.75,430.77,1575.59,344.55,1465.83,344.55z M1457.32,659.44
		c-61.84,0-103.58-44.98-103.58-113.21s42.51-115.46,102.8-115.46c60.29,0,103.58,47.98,103.58,113.21
		C1560.13,612.96,1518.39,659.44,1457.32,659.44z"/>
	
		<linearGradient id="SVGID_00000090995299242093231230000006463428609623094954_" gradientUnits="userSpaceOnUse" x1="1723.979" y1="621.5204" x2="2119.7368" y2="621.5204">
		<stop  offset="0" style="stop-color:#14405B"/>
		<stop  offset="1" style="stop-color:#14405B"/>
	</linearGradient>
	<path style="fill:url(#SVGID_00000090995299242093231230000006463428609623094954_);" d="M1928.04,601.72l-102.03-248.17h-102.03
		l157.69,373.37c-15.46,38.99-24.73,88.47-91.98,65.98l-27.83,85.47c57.97,22.49,137.59,16.5,176.24-71.22l181.65-453.6h-100.49
		L1928.04,601.72z"/>
	
		<linearGradient id="SVGID_00000053507279684051333200000006505328799096078728_" gradientUnits="userSpaceOnUse" x1="2186.9646" y1="541.3599" x2="2523.9788" y2="541.3599">
		<stop  offset="0" style="stop-color:#15415B"/>
		<stop  offset="1" style="stop-color:#14405B"/>
	</linearGradient>
	<path style="fill:url(#SVGID_00000053507279684051333200000006505328799096078728_);" d="M2389.48,650.45
		c-61.83,0-106.67-46.49-106.67-108.71s47.15-110.21,107.44-110.21c41.74,0,52.56,6,95.07,33.74l37.1-76.47
		c-44.06-30.74-81.16-43.49-131.41-43.49c-115.17,0-204.06,86.22-204.06,197.19c0,109.46,88.89,194.94,204.06,194.94
		c47.15,0,80.39-11.25,132.95-44.99l-30.15-82.47C2452.09,640.7,2429.68,650.45,2389.48,650.45z"/>
	
		<linearGradient id="SVGID_00000003100096814815348980000007686622338850834877_" gradientUnits="userSpaceOnUse" x1="2619.0198" y1="541.3599" x2="3026.3721" y2="541.3599">
		<stop  offset="0" style="stop-color:#14405B"/>
		<stop  offset="1" style="stop-color:#14405B"/>
	</linearGradient>
	<path style="fill:url(#SVGID_00000003100096814815348980000007686622338850834877_);" d="M2823.08,345.3
		c-112.08,0-204.06,87.72-204.06,192.69c0,112.47,88.89,199.44,202.52,199.44c115.95,0,204.84-85.47,204.84-195.69
		S2935.94,345.3,2823.08,345.3z M2821.54,651.2c-62.61,0-105.89-45.74-105.89-111.71c0-61.48,45.6-107.97,106.67-107.97
		c62.61,0,107.44,46.49,107.44,110.21C2929.75,606.21,2884.92,651.2,2821.54,651.2z"/>
	
		<linearGradient id="SVGID_00000072266166813491353550000018342827800320609186_" gradientUnits="userSpaceOnUse" x1="3144.613" y1="535.736" x2="3395.053" y2="535.736">
		<stop  offset="0" style="stop-color:#14405B"/>
		<stop  offset="1" style="stop-color:#14405B"/>
	</linearGradient>
	<path style="fill:url(#SVGID_00000072266166813491353550000018342827800320609186_);" d="M3238.14,383.54V352.8h-93.53v374.13
		h93.53V516.99c0-56.23,19.32-83.22,58.74-83.22c14.69,0,18.55,1.5,52.56,15.75l45.61-79.48c-26.28-16.49-54.11-25.49-80.39-25.49
		C3286.84,344.55,3251.28,358.79,3238.14,383.54z"/>
	
		<linearGradient id="SVGID_00000075163308892682693570000009791829477873271451_" gradientUnits="userSpaceOnUse" x1="3480.8264" y1="234.3363" x2="3606.0464" y2="234.3363">
		<stop  offset="0" style="stop-color:#14405B"/>
		<stop  offset="1" style="stop-color:#14405B"/>
	</linearGradient>
	<path style="fill:url(#SVGID_00000075163308892682693570000009791829477873271451_);" d="M3542.67,174.36
		c-33.24,0-61.84,27.74-61.84,60.73s28.6,59.23,63.39,59.23c33.24,0,61.83-26.99,61.83-59.23
		C3606.05,201.35,3578.22,174.36,3542.67,174.36z"/>
	
		<linearGradient id="SVGID_00000148626960868197505620000017643295370483211437_" gradientUnits="userSpaceOnUse" x1="3497.833" y1="540.2359" x2="3592.1355" y2="540.2359">
		<stop  offset="0" style="stop-color:#15415B"/>
		<stop  offset="1" style="stop-color:#14405B"/>
	</linearGradient>
	
		<rect x="3497.83" y="353.55" style="fill:url(#SVGID_00000148626960868197505620000017643295370483211437_);" width="94.3" height="373.37"/>
	
		<linearGradient id="SVGID_00000132794390758704221180000008637461582112007077_" gradientUnits="userSpaceOnUse" x1="3705.7395" y1="542.1091" x2="4035.021" y2="542.1091">
		<stop  offset="0" style="stop-color:#14405B"/>
		<stop  offset="1" style="stop-color:#14405B"/>
	</linearGradient>
	<path style="fill:url(#SVGID_00000132794390758704221180000008637461582112007077_);" d="M3902.07,498.25
		c-66.48-11.25-86.57-18.74-86.57-37.49c0-18.74,23.19-31.49,64.93-31.49c33.24,0,63.38,8.25,102.8,31.49l37.1-71.22
		c-37.1-27.74-87.34-44.24-137.59-44.24c-96.62,0-157.68,47.98-157.68,117.71c0,52.48,40.97,89.97,113.63,107.22
		c65.7,15.74,106.67,13.5,106.67,45.74c0,23.99-34.01,38.98-64.93,38.98c-51.02,0-78.07-10.49-115.95-41.99l-58.74,60.73
		c38.65,39.74,100.49,65.23,161.55,65.23c105.9,0,167.73-48.73,167.73-123.71C4035.02,552.23,3994.83,516.24,3902.07,498.25z"/>
</g>
</svg>
