<?xml version="1.0" encoding="utf-8"?>
<!-- Generator: Adobe Illustrator 28.3.0, SVG Export Plug-In . SVG Version: 6.00 Build 0)  -->
<svg version="1.1" id="Слой_2" xmlns="http://www.w3.org/2000/svg" xmlns:xlink="http://www.w3.org/1999/xlink" x="0px" y="0px"
	 viewBox="0 0 1055.66 1322.36" style="enable-background:new 0 0 1055.66 1322.36;" xml:space="preserve">
<style type="text/css">
	.st0{fill:url(#SVGID_1_);}
	.st1{fill:#FFFFFF;}
	.st2{fill:url(#SVGID_00000005983166092429506790000009562503188299177631_);}
	.st3{fill:url(#SVGID_00000124137863057085986070000001708700884781172111_);}
	.st4{fill:url(#SVGID_00000004523550117071399910000008536979287353318844_);}
	.st5{fill:url(#SVGID_00000130622848003649108410000016506476553277943721_);}
	.st6{fill:url(#SVGID_00000147195033297729495070000015596421458615476923_);}
	.st7{fill:url(#SVGID_00000155120684062477214260000017575668230462240667_);}
	.st8{fill:url(#SVGID_00000141448402890918043340000007412909388724174258_);}
	.st9{fill:url(#SVGID_00000093136736884151266120000017245978003637020343_);}
	.st10{fill:url(#SVGID_00000141422675425566900410000002026660295358811066_);}
</style>
<linearGradient id="SVGID_1_" gradientUnits="userSpaceOnUse" x1="86.3925" y1="275.7752" x2="973.7158" y2="788.0715">
	<stop  offset="0" style="stop-color:#325D70"/>
	<stop  offset="0.3665" style="stop-color:#2C576B"/>
	<stop  offset="0.8782" style="stop-color:#19455F"/>
	<stop  offset="1" style="stop-color:#14405B"/>
</linearGradient>
<circle class="st0" cx="530.05" cy="531.92" r="512.21"/>
<g>
	<path class="st1" d="M549.53,178.93c-29.03,0-56.22,7.84-79.59,21.51c-46.81,27.39-78.25,77.41-78.25,135.56
		c27.44,0,91.17-0.49,108.02-0.49c0-2.35,0.05-13.98,0.05-14.95c0-27.57,22.35-49.92,49.92-49.92c27.57,0,49.92,22.35,49.92,49.92
		c0,7.25-0.01,11.45-0.01,15.88c0,53.67-43.44,59.03-52.54,59.03c-9.1,0-250.19-0.09-251.82-0.09
		c-77.44,1.18-138.49,62-138.49,138.49s62,136.44,138.49,136.44c1.42,0,53.04-0.85,53.04-0.85v-32.34v-74.62h-53.83
		c0,0-30.8,2.05-30.8-30.23s30.8-30.91,30.8-30.91s229.72,0,254.12,0c87.62,0,158.65-71.03,158.65-158.65
		c0.16-2.05,0.07-3.79,0.16-5.93C707.37,249.6,636.7,178.93,549.53,178.93z"/>
</g>
<g>
	
		<linearGradient id="SVGID_00000100345557062358512620000006106037914971928237_" gradientUnits="userSpaceOnUse" x1="608.3232" y1="403.4439" x2="649.4371" y2="873.378">
		<stop  offset="0" style="stop-color:#FFFFFF"/>
		<stop  offset="0.4624" style="stop-color:#CCF7EF"/>
		<stop  offset="1" style="stop-color:#8DECDB"/>
	</linearGradient>
	<path style="fill:url(#SVGID_00000100345557062358512620000006106037914971928237_);" d="M510.58,884.91
		c29.03,0,56.22-7.84,79.59-21.51c46.81-27.39,78.25-77.41,78.25-135.56c-27.44,0-91.17,0.49-108.02,0.49
		c0,2.35-0.05,13.98-0.05,14.95c0,27.57-22.35,49.92-49.92,49.92c-27.57,0-49.92-22.35-49.92-49.92c0-7.25,0.01-11.45,0.01-15.88
		c0-53.67,43.44-59.03,52.54-59.03s250.19,0.09,251.82,0.09c77.44-1.18,138.49-62,138.49-138.49s-62-136.44-138.49-136.44
		c-2.32,0-53.04,0.85-53.04,0.85v32.34v74.62h53.83c0,0,30.8-2.05,30.8,30.23s-30.8,30.91-30.8,30.91c-222.8,0-222.8,0-254.12,0
		c-87.62,0-158.65,71.03-158.65,158.65c-0.16,2.05-0.07,3.79-0.16,5.93C352.74,814.25,423.4,884.91,510.58,884.91z"/>
</g>
<g>
	
		<linearGradient id="SVGID_00000106869597813618381420000013705131878903605916_" gradientUnits="userSpaceOnUse" x1="24.2565" y1="1198.5753" x2="168.3342" y2="1198.5753">
		<stop  offset="0" style="stop-color:#14405B"/>
		<stop  offset="1" style="stop-color:#14405B"/>
	</linearGradient>
	<path style="fill:url(#SVGID_00000106869597813618381420000013705131878903605916_);" d="M98.69,1099.98
		c-18.61,0-27.35,4.92-39.19,14.77v-11.49H24.26v193.9H59.5v-63.17c11.56,8.48,24.25,12.58,39.47,12.58
		c40.04,0,69.36-31.18,69.36-72.75C168.33,1131.44,138.73,1099.98,98.69,1099.98z M95.59,1214.85c-22.56,0-37.78-16.41-37.78-41.3
		s15.51-42.12,37.5-42.12s37.78,17.5,37.78,41.3C133.09,1197.89,117.86,1214.85,95.59,1214.85z"/>
	
		<linearGradient id="SVGID_00000069391733928075074720000000943845166185268664_" gradientUnits="userSpaceOnUse" x1="192.8583" y1="1201.0142" x2="337.218" y2="1201.0142">
		<stop  offset="0" style="stop-color:#14405B"/>
		<stop  offset="1" style="stop-color:#14405B"/>
	</linearGradient>
	<path style="fill:url(#SVGID_00000069391733928075074720000000943845166185268664_);" d="M267.29,1193.79l-37.22-90.52h-37.22
		l57.52,136.19c-5.64,14.22-9.02,32.27-33.55,24.07l-10.15,31.18c21.15,8.2,50.19,6.02,64.29-25.98l66.26-165.46h-36.65
		L267.29,1193.79z"/>
	
		<linearGradient id="SVGID_00000183207892613796619370000016514828184673685147_" gradientUnits="userSpaceOnUse" x1="361.7405" y1="1171.7742" x2="484.6723" y2="1171.7742">
		<stop  offset="0" style="stop-color:#15415B"/>
		<stop  offset="1" style="stop-color:#14405B"/>
	</linearGradient>
	<path style="fill:url(#SVGID_00000183207892613796619370000016514828184673685147_);" d="M435.61,1211.57
		c-22.56,0-38.91-16.96-38.91-39.66s17.2-40.2,39.19-40.2c15.23,0,19.17,2.19,34.68,12.31l13.53-27.9
		c-16.07-11.21-29.61-15.86-47.93-15.86c-42.01,0-74.44,31.45-74.44,71.93c0,39.93,32.42,71.11,74.44,71.11
		c17.2,0,29.32-4.1,48.5-16.41l-11-30.08C458.45,1208.01,450.27,1211.57,435.61,1211.57z"/>
	
		<linearGradient id="SVGID_00000121963809143099761190000013673931637628453514_" gradientUnits="userSpaceOnUse" x1="519.3402" y1="1171.7742" x2="667.9292" y2="1171.7742">
		<stop  offset="0" style="stop-color:#14405B"/>
		<stop  offset="1" style="stop-color:#14405B"/>
	</linearGradient>
	<path style="fill:url(#SVGID_00000121963809143099761190000013673931637628453514_);" d="M593.78,1100.26
		c-40.88,0-74.44,32-74.44,70.29c0,41.02,32.42,72.75,73.87,72.75c42.29,0,74.72-31.18,74.72-71.38
		C667.93,1131.71,634.94,1100.26,593.78,1100.26z M593.21,1211.84c-22.84,0-38.63-16.68-38.63-40.75
		c0-22.43,16.63-39.38,38.91-39.38c22.84,0,39.19,16.96,39.19,40.2C632.69,1195.43,616.33,1211.84,593.21,1211.84z"/>
	
		<linearGradient id="SVGID_00000165940559891542668770000015655487009576204672_" gradientUnits="userSpaceOnUse" x1="711.0597" y1="1169.7228" x2="802.4121" y2="1169.7228">
		<stop  offset="0" style="stop-color:#14405B"/>
		<stop  offset="1" style="stop-color:#14405B"/>
	</linearGradient>
	<path style="fill:url(#SVGID_00000165940559891542668770000015655487009576204672_);" d="M745.18,1114.21v-11.21h-34.12v136.47
		h34.12v-76.58c0-20.51,7.05-30.36,21.43-30.36c5.36,0,6.77,0.55,19.17,5.74l16.64-28.99c-9.59-6.02-19.74-9.3-29.32-9.3
		C762.94,1099.98,749.97,1105.18,745.18,1114.21z"/>
	
		<linearGradient id="SVGID_00000089566715203209600700000010395392489161660834_" gradientUnits="userSpaceOnUse" x1="833.6995" y1="1059.7819" x2="879.3757" y2="1059.7819">
		<stop  offset="0" style="stop-color:#14405B"/>
		<stop  offset="1" style="stop-color:#14405B"/>
	</linearGradient>
	<path style="fill:url(#SVGID_00000089566715203209600700000010395392489161660834_);" d="M856.26,1037.9
		c-12.12,0-22.56,10.12-22.56,22.15s10.43,21.61,23.12,21.61c12.12,0,22.56-9.85,22.56-21.61
		C879.38,1047.75,869.23,1037.9,856.26,1037.9z"/>
	
		<linearGradient id="SVGID_00000111193691885920277540000018315902455636565126_" gradientUnits="userSpaceOnUse" x1="839.903" y1="1171.3641" x2="874.3015" y2="1171.3641">
		<stop  offset="0" style="stop-color:#15415B"/>
		<stop  offset="1" style="stop-color:#14405B"/>
	</linearGradient>
	
		<rect x="839.9" y="1103.27" style="fill:url(#SVGID_00000111193691885920277540000018315902455636565126_);" width="34.4" height="136.19"/>
	
		<linearGradient id="SVGID_00000150101774963271455530000004909742209417458869_" gradientUnits="userSpaceOnUse" x1="915.7405" y1="1172.0475" x2="1035.8518" y2="1172.0475">
		<stop  offset="0" style="stop-color:#14405B"/>
		<stop  offset="1" style="stop-color:#14405B"/>
	</linearGradient>
	<path style="fill:url(#SVGID_00000150101774963271455530000004909742209417458869_);" d="M987.36,1156.05
		c-24.25-4.1-31.58-6.84-31.58-13.68s8.46-11.49,23.68-11.49c12.12,0,23.12,3.01,37.5,11.49l13.53-25.98
		c-13.53-10.12-31.86-16.14-50.19-16.14c-35.24,0-57.52,17.5-57.52,42.94c0,19.14,14.94,32.82,41.45,39.11
		c23.97,5.74,38.91,4.92,38.91,16.68c0,8.75-12.41,14.22-23.68,14.22c-18.61,0-28.48-3.83-42.29-15.31l-21.43,22.15
		c14.1,14.49,36.65,23.79,58.93,23.79c38.63,0,61.18-17.78,61.18-45.12C1035.85,1175.74,1021.19,1162.61,987.36,1156.05z"/>
</g>
</svg>
